<svg width="501" height="150" viewBox="0 0 501 150" fill="none" xmlns="http://www.w3.org/2000/svg">
<path d="M181.661 65.4781C195.472 70.6563 194.941 90.3783 180.873 94.8107C132.737 109.977 95.206 121.801 43.2715 138.164C33.274 141.314 23.0839 133.852 23.0839 123.37L23.0839 28.4083C23.0839 17.5762 33.9056 10.0793 44.0482 13.8821C95.8633 33.3094 133.386 47.3781 181.661 65.4781Z" fill="#91CEFF"/>
<ellipse cx="92.914" cy="78.5071" rx="54.3119" ry="54.2913" fill="#234AD4"/>
<ellipse cx="92.9138" cy="78.5071" rx="23.2765" ry="23.2677" fill="white"/>
<path d="M288.683 77.6359C288.683 82.1009 287.938 86.2431 286.45 90.0623C284.99 93.8534 282.912 97.139 280.216 99.9191C277.52 102.699 274.276 104.876 270.485 106.448C266.694 107.993 262.482 108.765 257.848 108.765C253.243 108.765 249.044 107.993 245.253 106.448C241.462 104.876 238.205 102.699 235.481 99.9191C232.785 97.139 230.693 93.8534 229.204 90.0623C227.716 86.2431 226.972 82.1009 226.972 77.6359C226.972 73.1708 227.716 69.0427 229.204 65.2516C230.693 61.4324 232.785 58.1327 235.481 55.3526C238.205 52.5724 241.462 50.4101 245.253 48.8656C249.044 47.293 253.243 46.5067 257.848 46.5067C260.937 46.5067 263.844 46.8718 266.568 47.6019C269.292 48.3039 271.791 49.3149 274.066 50.6348C276.34 51.9266 278.376 53.5132 280.174 55.3947C281.999 57.2481 283.543 59.3262 284.807 61.629C286.071 63.9317 287.026 66.431 287.672 69.1269C288.346 71.8228 288.683 74.6591 288.683 77.6359ZM277.099 77.6359C277.099 74.2941 276.649 71.3033 275.751 68.6636C274.852 65.9958 273.574 63.7351 271.917 61.8817C270.261 60.0283 268.239 58.6101 265.852 57.6273C263.493 56.6444 260.825 56.1529 257.848 56.1529C254.871 56.1529 252.19 56.6444 249.803 57.6273C247.444 58.6101 245.422 60.0283 243.737 61.8817C242.08 63.7351 240.802 65.9958 239.904 68.6636C239.005 71.3033 238.556 74.2941 238.556 77.6359C238.556 80.9776 239.005 83.9824 239.904 86.6503C240.802 89.29 242.08 91.5366 243.737 93.39C245.422 95.2154 247.444 96.6195 249.803 97.6023C252.19 98.5852 254.871 99.0767 257.848 99.0767C260.825 99.0767 263.493 98.5852 265.852 97.6023C268.239 96.6195 270.261 95.2154 271.917 93.39C273.574 91.5366 274.852 89.29 275.751 86.6503C276.649 83.9824 277.099 80.9776 277.099 77.6359ZM326.856 77.8044C328.934 77.8044 330.746 77.5516 332.29 77.0461C333.835 76.5126 335.112 75.7684 336.123 74.8136C337.162 73.8307 337.935 72.6513 338.44 71.2752C338.946 69.8711 339.198 68.3126 339.198 66.5995C339.198 64.9708 338.946 63.4964 338.44 62.1766C337.935 60.8567 337.176 59.7334 336.165 58.8067C335.154 57.88 333.877 57.1779 332.332 56.7005C330.788 56.1951 328.962 55.9423 326.856 55.9423H318.389V77.8044H326.856ZM326.856 47.1807C330.928 47.1807 334.452 47.6581 337.429 48.6129C340.406 49.5676 342.863 50.9016 344.801 52.6146C346.738 54.3276 348.171 56.3776 349.097 58.7646C350.052 61.1516 350.53 63.7632 350.53 66.5995C350.53 69.5482 350.038 72.2581 349.055 74.7293C348.072 77.1725 346.598 79.2787 344.632 81.0479C342.666 82.817 340.195 84.1931 337.219 85.1759C334.27 86.1588 330.816 86.6503 326.856 86.6503H318.389V108.091H307.058V47.1807H326.856ZM410.188 56.4899H391.822V108.091H380.491V56.4899H362.125V47.1807H410.188V56.4899ZM482.615 77.6359C482.615 82.1009 481.87 86.2431 480.382 90.0623C478.922 93.8534 476.844 97.139 474.148 99.9191C471.452 102.699 468.208 104.876 464.417 106.448C460.626 107.993 456.414 108.765 451.78 108.765C447.175 108.765 442.976 107.993 439.185 106.448C435.394 104.876 432.137 102.699 429.413 99.9191C426.717 97.139 424.625 93.8534 423.136 90.0623C421.648 86.2431 420.904 82.1009 420.904 77.6359C420.904 73.1708 421.648 69.0427 423.136 65.2516C424.625 61.4324 426.717 58.1327 429.413 55.3526C432.137 52.5724 435.394 50.4101 439.185 48.8656C442.976 47.293 447.175 46.5067 451.78 46.5067C454.869 46.5067 457.776 46.8718 460.5 47.6019C463.224 48.3039 465.723 49.3149 467.998 50.6348C470.272 51.9266 472.308 53.5132 474.106 55.3947C475.931 57.2481 477.476 59.3262 478.739 61.629C480.003 63.9317 480.958 66.431 481.604 69.1269C482.278 71.8228 482.615 74.6591 482.615 77.6359ZM471.031 77.6359C471.031 74.2941 470.581 71.3033 469.683 68.6636C468.784 65.9958 467.506 63.7351 465.849 61.8817C464.193 60.0283 462.171 58.6101 459.784 57.6273C457.425 56.6444 454.757 56.1529 451.78 56.1529C448.804 56.1529 446.122 56.6444 443.735 57.6273C441.376 58.6101 439.354 60.0283 437.669 61.8817C436.012 63.7351 434.734 65.9958 433.836 68.6636C432.937 71.3033 432.488 74.2941 432.488 77.6359C432.488 80.9776 432.937 83.9824 433.836 86.6503C434.734 89.29 436.012 91.5366 437.669 93.39C439.354 95.2154 441.376 96.6195 443.735 97.6023C446.122 98.5852 448.804 99.0767 451.78 99.0767C454.757 99.0767 457.425 98.5852 459.784 97.6023C462.171 96.6195 464.193 95.2154 465.849 93.39C467.506 91.5366 468.784 89.29 469.683 86.6503C470.581 83.9824 471.031 80.9776 471.031 77.6359Z" fill="#234AD4"/>
</svg>
